# xmcd
#
# Track frame offsets: 
#        150
#        17271
#        32218
#        51472
#        65743
#        77929
#        95466
#        109693
#        131652
#        155721
#        174574
#        196561
#        212437
#
# Disc length: 3112 seconds
#
# Revision: 0
# Processed by: cddbd v1.5.2PL0 Copyright (c) Steve Scherf et al.
# Submitted via: ExactAudioCopy v1.1
#
DISCID=ad0c260d
DTITLE=Highrise Lonesome - Shades of Bluegrass
DYEAR=2013
DGENRE=Bluegrass
TTITLE0=Dark as the Night, Blue as the Day
TTITLE1=Elephant Mountain
TTITLE2=Tear My Stillhouse Down
TTITLE3=From Now On
TTITLE4=Forget Me Nots
TTITLE5=Sleepwalk
TTITLE6=Blue Railroad Train
TTITLE7=Cold Wind Blowing
TTITLE8=Pineapple Express
TTITLE9=Wall Around Your Heart
TTITLE10=Old Daingerfield
TTITLE11=Love Hurts
TTITLE12=You've Got To Carry On
EXTD=
EXTT0=
EXTT1=
EXTT2=
EXTT3=
EXTT4=
EXTT5=
EXTT6=
EXTT7=
EXTT8=
EXTT9=
EXTT10=
EXTT11=
EXTT12=
PLAYORDER=
